<svg width="50" height="58" viewBox="0 0 50 58" fill="none" xmlns="http://www.w3.org/2000/svg">
<path d="M50 0.717224H0L4.6875 51.9154L24.9972 57.7172L45.3069 51.9154L50 0.717224Z" fill="#E6A329"/>
<path d="M24.9972 4.88849V53.3786L41.4527 48.6827L45.4561 4.88849H24.9972Z" fill="#F1BF22"/>
<path d="M38.0884 11.1696H12.7872L11.0248 30.3388L11.0614 30.2197H32.5563L31.8553 38.3297L24.9972 40.3175L18.0378 38.2985L17.6211 33.39H11.3035L12.2044 43.1986L24.9972 46.8566L37.7957 43.1986L39.558 23.9471H16.7455L17.0383 17.5328H32.866L33.1025 21.2079H39.4764L38.0884 11.1696Z" fill="white"/>
<path d="M25.0029 11.1696H12.7872L11.0248 30.3388L11.0614 30.2197H25.0029V23.967H17.6352L17.928 17.5527H25.0029V11.1696ZM17.6352 33.39H11.3035L12.2044 43.1929L24.9973 46.8453V40.3232L18.0378 38.2985L17.6352 33.39Z" fill="#EBEBEB"/>
</svg>
