<svg width="61" height="54" viewBox="0 0 61 54" fill="none" xmlns="http://www.w3.org/2000/svg">
<path d="M10.5 26.5933V41.1592C10.5 42.8223 11.0173 44.4691 12.0224 46.0056C13.0275 47.5421 14.5007 48.9382 16.3578 50.1142C18.215 51.2902 20.4198 52.2231 22.8463 52.8595C25.2728 53.4959 27.8736 53.8235 30.5 53.8235C33.1264 53.8235 35.7272 53.4959 38.1537 52.8595C40.5802 52.2231 42.785 51.2902 44.6422 50.1142C46.4993 48.9382 47.9725 47.5421 48.9776 46.0056C49.9827 44.4691 50.5 42.8223 50.5 41.1592V26.5933L30.5 37.9931L20.5 32.2916V41.1592L18 37.9931L15.5 41.1592V29.444L10.5 26.5933Z" fill="#2F87ED"/>
<path d="M60.5 17.0969L30.5 0L0.500001 17.0969L30.5 34.1937L60.5 17.0969Z" fill="#2F87ED"/>
</svg>
