<svg width="70" height="63" viewBox="0 0 70 63" fill="none" xmlns="http://www.w3.org/2000/svg">
<g clip-path="url(#clip0)">
<path d="M0.206207 31.3757C0.206207 36.6296 5.33651 41.534 13.4245 44.2986C11.8093 52.4295 13.1352 58.9833 17.563 61.5368C22.1142 64.1617 28.8946 62.3448 35.3303 56.719C41.6035 62.1175 47.9434 64.2421 52.3675 61.6812C56.9146 59.0489 58.2973 52.0508 56.6376 43.6659C65.0618 40.8808 69.7741 36.6987 69.7741 31.3757C69.7741 26.2437 64.6345 21.8041 56.6554 19.0573C58.4422 10.3259 56.9282 3.93131 52.3169 1.27224C47.8713 -1.29141 41.4575 0.943034 35.0921 6.48265C28.4697 0.602892 22.1194 -1.19215 17.513 1.4743C13.0715 4.04533 11.8041 10.7183 13.4245 18.9996C5.60939 21.7243 0.206207 26.2645 0.206207 31.3757Z" fill="white"/>
<path d="M54.9656 21.7849C54.308 21.5593 53.6448 21.3504 52.9767 21.1582C53.0875 20.708 53.1899 20.2558 53.284 19.8018C54.7895 12.4936 53.8051 6.60621 50.4436 4.66817C47.2207 2.80941 41.9496 4.74746 36.626 9.38012C36.1014 9.83765 35.5885 10.3084 35.0877 10.7918C34.7524 10.4704 34.4111 10.1551 34.064 9.84631C28.4848 4.89237 22.8924 2.80504 19.5344 4.74883C16.3145 6.61277 15.3608 12.1477 16.7162 19.0736C16.8511 19.7595 17.0033 20.4418 17.1728 21.1199C16.3815 21.3447 15.6173 21.5842 14.8862 21.8391C8.34526 24.1194 4.16785 27.6937 4.16785 31.4008C4.16785 35.2298 8.65204 39.0704 15.4653 41.3989C16.0177 41.5868 16.5748 41.7609 17.1359 41.9211C16.9536 42.6517 16.7918 43.3872 16.6506 44.1268C15.3584 50.9324 16.3676 56.3361 19.579 58.1886C22.8959 60.1012 28.4629 58.1353 33.8838 53.3968C34.3123 53.0222 34.7424 52.6249 35.173 52.2085C35.7155 52.7318 36.2724 53.24 36.8431 53.7323C42.094 58.2507 47.2798 60.0752 50.4885 58.2178C53.8024 56.2995 54.8792 50.4944 53.4809 43.4315C53.3742 42.892 53.2498 42.3411 53.1104 41.78C53.5014 41.6646 53.885 41.5454 54.2593 41.4213C61.3421 39.0747 65.9502 35.281 65.9502 31.4008C65.9502 27.6803 61.6382 24.082 54.9656 21.7849Z" fill="#53C1DE"/>
<path d="M53.429 38.9162C53.0914 39.028 52.7447 39.136 52.3914 39.2407C51.6094 36.7654 50.554 34.1331 49.2629 31.4139C50.4952 28.7589 51.5096 26.1606 52.2697 23.7011C52.9016 23.8843 53.5152 24.0771 54.1063 24.2808C59.8237 26.2486 63.3109 29.1587 63.3109 31.4008C63.3109 33.7892 59.5445 36.8898 53.4293 38.9162H53.429ZM50.8917 43.9442C51.5099 47.0673 51.5982 49.8909 51.1886 52.0983C50.8206 54.0817 50.0807 55.404 49.1658 55.9336C47.2187 57.0607 43.0547 55.5957 38.5645 51.7316C38.0497 51.2887 37.531 50.8157 37.0109 50.3153C38.7518 48.4112 40.4916 46.1975 42.1896 43.7394C45.1765 43.4744 47.9983 43.0411 50.5573 42.4496C50.683 42.9582 50.7951 43.4567 50.8917 43.9442ZM25.2306 55.739C23.3284 56.4108 21.8134 56.4299 20.8977 55.9019C18.9487 54.7781 18.1388 50.4389 19.2437 44.619C19.3751 43.9312 19.5255 43.2472 19.6949 42.5678C22.2254 43.1275 25.0267 43.5302 28.0207 43.773C29.7299 46.1784 31.52 48.3893 33.3241 50.3254C32.9406 50.6963 32.5482 51.0577 32.1469 51.4093C29.7498 53.5048 27.3478 54.9911 25.2309 55.739H25.2306ZM16.3189 38.9014C13.3063 37.8717 10.8184 36.5335 9.11302 35.0734C7.58074 33.761 6.80695 32.4581 6.80695 31.4008C6.80695 29.1513 10.1611 26.2817 15.7551 24.3313C16.4572 24.0876 17.1663 23.8645 17.8815 23.6623C18.6548 26.177 19.6689 28.8062 20.8927 31.465C19.653 34.1635 18.6244 36.8346 17.8441 39.3788C17.3318 39.2322 16.8233 39.073 16.3189 38.9014ZM19.3063 18.5667C18.1451 12.6325 18.9162 8.15628 20.8567 7.03305C22.9238 5.83654 27.4941 7.54272 32.3113 11.8199C32.6192 12.0933 32.9284 12.3796 33.2382 12.6757C31.4434 14.6031 29.6697 16.7974 27.9753 19.1888C25.0696 19.4581 22.288 19.8906 19.731 20.47C19.5734 19.8392 19.4319 19.2044 19.3063 18.5664V18.5667ZM45.9563 25.1472C45.3523 24.104 44.726 23.0738 44.0776 22.0575C46.049 22.3064 47.9376 22.6372 49.711 23.0421C49.1786 24.7486 48.515 26.533 47.7336 28.3622C47.1626 27.2788 46.5701 26.207 45.9563 25.1472ZM35.0885 14.5618C36.3058 15.8806 37.525 17.3532 38.7242 18.9509C36.2915 18.8359 33.8548 18.8354 31.4221 18.9492C32.6224 17.3664 33.852 15.8959 35.0885 14.5618ZM24.1509 25.1653C23.5448 26.2166 22.9633 27.2819 22.407 28.3603C21.6384 26.5373 20.9808 24.745 20.4438 23.0143C22.2066 22.6197 24.0864 22.2973 26.0449 22.0526C25.3893 23.0752 24.7578 24.1131 24.1509 25.1653ZM26.1012 40.9373C24.0779 40.7115 22.1696 40.4055 20.4074 40.0219C20.9529 38.2605 21.625 36.4296 22.41 34.5676C22.9687 35.6468 23.5527 36.7127 24.1616 37.7645C24.7828 38.8374 25.4296 39.8953 26.1012 40.9373ZM35.1615 48.4262C33.9105 47.0763 32.6629 45.5834 31.4442 43.9776C32.6271 44.024 33.8332 44.0475 35.0589 44.0475C36.3183 44.0475 37.5632 44.0194 38.7885 43.9647C37.5854 45.5998 36.3706 47.0949 35.1615 48.4262ZM47.7587 34.4727C48.5845 36.355 49.2806 38.176 49.8335 39.9076C48.042 40.3164 46.1081 40.6456 44.0702 40.89C44.7233 39.8548 45.3556 38.8066 45.967 37.7462C46.5884 36.6684 47.1858 35.577 47.7587 34.4727ZM43.6806 36.4277C42.7447 38.0535 41.7562 39.6484 40.7167 41.2099C38.8836 41.3409 36.9893 41.4084 35.0589 41.4084C33.1365 41.4084 31.2662 41.3486 29.4652 41.2318C28.3987 39.6739 27.3915 38.0762 26.4457 36.4422C25.5044 34.8168 24.6252 33.1563 23.8099 31.4642C24.6231 29.7716 25.4997 28.1102 26.4378 26.4835V26.484C27.3756 24.857 28.3749 23.2661 29.4335 21.7149C31.2709 21.576 33.1548 21.5033 35.0592 21.5033C36.9721 21.5033 38.8585 21.5766 40.6953 21.7166C41.7432 23.2654 42.7361 24.8507 43.6721 26.4695C44.6135 28.0926 45.5017 29.7459 46.3356 31.4267C45.5103 33.1247 44.6249 34.7928 43.6809 36.4277H43.6806ZM49.1253 6.95458C51.1941 8.14781 51.9988 12.9593 50.6989 19.2691C50.6137 19.6802 50.5211 20.0897 50.4211 20.4974C47.858 19.9059 45.0745 19.4657 42.1603 19.1923C40.4626 16.7749 38.7037 14.5769 36.9379 12.6744C37.4006 12.2283 37.8743 11.7938 38.3586 11.3712C42.9199 7.40163 47.1829 5.83435 49.1253 6.95458Z" fill="white"/>
<path d="M35.059 25.8839C38.106 25.8839 40.5759 28.354 40.5759 31.4008C40.5759 34.4479 38.106 36.918 35.059 36.918C32.0122 36.918 29.5421 34.4479 29.5421 31.4008C29.5421 28.354 32.0122 25.8839 35.059 25.8839Z" fill="#53C1DE"/>
</g>
<defs>
<clipPath id="clip0">
<rect width="70" height="62.888" fill="white"/>
</clipPath>
</defs>
</svg>
