<svg width="50" height="56" viewBox="0 0 50 56" fill="none" xmlns="http://www.w3.org/2000/svg">
<g clip-path="url(#clip0)">
<path d="M46.8696 27.1881C46.8696 24.3494 44.5685 22.0482 41.7298 22.0482C41.5472 22.0482 41.3671 22.058 41.1896 22.0766L48.2491 1.25528H18.2484L25.298 22.0586C25.1946 22.0523 25.0907 22.0482 24.9857 22.0482C22.147 22.0482 19.8458 24.3494 19.8458 27.1881C19.8458 29.4826 21.3495 31.4252 23.4251 32.0861C22.3288 33.985 20.9495 35.6951 19.3835 37.1725C17.254 39.1814 14.8169 40.7047 12.1812 41.6434C9.04288 40.0313 7.56085 36.4457 8.89816 33.3022C9.04913 32.9473 9.20323 32.5873 9.35069 32.2291C11.6241 31.6984 13.3183 29.6602 13.3183 27.225C13.3183 24.3863 11.0171 22.0852 8.17843 22.0852C5.33956 22.0852 3.03839 24.3863 3.03839 27.225C3.03839 28.9658 3.9046 30.5031 5.22843 31.433C3.95616 34.3297 2.08624 37.3609 1.50362 40.8742C0.805382 45.085 1.50148 49.5545 5.14308 52.0785C13.6243 57.9566 22.8306 48.4346 32.5374 46.0408C36.0552 45.1732 39.9167 45.3131 43.0161 43.518C45.3437 42.1699 46.878 39.9359 47.3136 37.4277C47.7437 34.95 47.1165 32.483 45.6743 30.4826C46.4202 29.5904 46.8696 28.442 46.8696 27.1881ZM30.1251 27.2063C30.1251 27.2002 30.1257 27.1941 30.1257 27.1881C30.1257 25.324 29.1331 23.6916 27.648 22.7906L33.2589 11.4447L38.8796 22.9109C37.4993 23.8324 36.5898 25.4039 36.5898 27.1881C36.5898 27.2256 36.5919 27.2625 36.5927 27.2998L30.1251 27.2063Z" fill="#C63D14"/>
<path d="M48.1248 27.1881C48.1248 24.066 45.8754 21.4609 42.9123 20.9045L50 0H16.4973L23.5957 20.9469C20.7357 21.5834 18.5904 24.1393 18.5904 27.1881C18.5904 29.4777 19.8004 31.4889 21.6139 32.6189C20.7416 33.9184 19.7072 35.1412 18.5219 36.2594C16.6422 38.0328 14.5479 39.3777 12.29 40.2625C10.016 38.834 9.05469 36.1402 10.0531 33.7934L10.1313 33.6098C10.1801 33.4949 10.2291 33.3797 10.2779 33.2645C12.7756 32.3936 14.5734 30.016 14.5734 27.225C14.5734 23.6986 11.7045 20.8299 8.17813 20.8299C4.65176 20.8299 1.78301 23.6986 1.78301 27.225C1.78301 29.0049 2.51446 30.6166 3.6918 31.7771C3.47833 32.2322 3.25391 32.6947 3.02325 33.1686C1.94669 35.3797 0.726569 37.8859 0.265046 40.6689C-0.651556 46.1961 0.826765 50.6145 4.42774 53.1102C6.6129 54.6246 8.83184 55.2203 11.0649 55.2201C15.2697 55.2199 19.5231 53.1076 23.6832 51.0412C26.6795 49.5531 29.7775 48.0143 32.8379 47.2596C33.9766 46.9787 35.1483 46.8098 36.3887 46.6309C38.8484 46.276 41.3922 45.9092 43.6453 44.6043C46.2568 43.0916 48.0447 40.5541 48.5502 37.6426C48.9842 35.1432 48.4617 32.64 47.1879 30.517C47.7818 29.5467 48.1248 28.4068 48.1248 27.1881ZM45.6143 27.1881C45.6143 29.3301 43.8717 31.0728 41.7295 31.0728C39.5877 31.0728 37.8449 29.3301 37.8449 27.1881C37.8449 25.0461 39.5877 23.3035 41.7295 23.3035C43.8717 23.3035 45.6143 25.0461 45.6143 27.1881ZM46.4979 2.51055L40.2391 20.9701C39.9678 21.0352 39.7033 21.1172 39.4465 21.2158L33.2637 8.60293L27.0629 21.1412C26.7949 21.0488 26.5191 20.9729 26.2363 20.9166L19.999 2.51055H46.4979ZM24.9856 23.3035C27.1275 23.3035 28.8701 25.0461 28.8701 27.1881C28.8701 29.3301 27.1275 31.0728 24.9856 31.0728C22.8438 31.0728 21.101 29.3301 21.101 27.1881C21.101 25.0461 22.8438 23.3035 24.9856 23.3035ZM8.17813 23.3404C10.3203 23.3404 12.0629 25.083 12.0629 27.225C12.0629 29.367 10.3203 31.1098 8.17813 31.1098C6.03633 31.1098 4.29356 29.367 4.29356 27.225C4.29356 25.083 6.03633 23.3404 8.17813 23.3404ZM46.0766 37.2131C45.6986 39.3904 44.3537 41.2926 42.3869 42.4316C40.5535 43.4936 38.3565 43.8105 36.0303 44.1459C34.7842 44.3256 33.4955 44.5115 32.2367 44.8221C28.9082 45.6428 25.6842 47.2441 22.5664 48.7928C16.3272 51.8918 10.9387 54.568 5.85802 51.0467C2.13634 48.4674 2.30821 43.6949 2.7418 41.0797C3.14356 38.6568 4.22989 36.4254 5.28048 34.2674C5.46231 33.8939 5.63887 33.5281 5.81212 33.1646C6.33321 33.373 6.88731 33.515 7.46485 33.5795C6.39551 37.109 8.07735 40.9465 11.6072 42.76L12.0902 43.0082L12.602 42.826C15.3926 41.8322 17.9639 40.2373 20.2447 38.0855C21.7191 36.6947 22.9861 35.1559 24.0279 33.5115C24.3404 33.5586 24.6602 33.5834 24.9856 33.5834C28.5119 33.5834 31.3809 30.7146 31.3809 27.1881C31.3809 25.2916 30.5502 23.5861 29.2346 22.4139L33.2537 14.2865L37.3137 22.5687C36.0955 23.734 35.3344 25.3732 35.3344 27.1881C35.3344 30.7146 38.2031 33.5834 41.7295 33.5834C43.0844 33.5834 44.3412 33.1588 45.3764 32.4373C46.0951 33.9086 46.3629 35.5641 46.0766 37.2131Z" fill="white"/>
</g>
<defs>
<clipPath id="clip0">
<rect width="50" height="55.2734" fill="white"/>
</clipPath>
</defs>
</svg>
