<svg width="60" height="60" viewBox="0 0 60 60" fill="none" xmlns="http://www.w3.org/2000/svg">
<g clip-path="url(#clip0)">
<path d="M29.9999 0L56.5148 14.8143V44.4429L29.9999 59.2571L3.485 44.4429V14.8143L29.9999 0Z" fill="white"/>
<path d="M51.7801 43.4205L30.875 55.0991V46.0031L43.9001 38.9269L51.7801 43.4205ZM53.2101 42.1416V17.7178L45.5601 22.0782V37.7763L53.2101 42.1416ZM8.13499 43.4205L29.04 55.0991V46.0031L16.015 38.9269L8.13499 43.4205ZM6.70498 42.1416V17.7178L14.355 22.0782V37.7763L6.70498 42.1416ZM7.59998 16.1377L29.04 4.1579V12.9526L15.305 20.414L15.2 20.4733L7.59998 16.1377ZM52.3151 16.1377L30.875 4.1579V12.9526L44.6101 20.414L44.7151 20.4733L52.3151 16.1377Z" fill="#8ED6FB"/>
<path d="M29.0399 43.9341L16.19 36.9566V23.13L29.0399 30.4581V43.9341ZM30.8749 43.9341L43.7249 36.9566V23.13L30.8749 30.4581V43.9341ZM17.06 21.5301L29.9599 14.5229L42.8599 21.5301L29.9599 28.8878L17.06 21.5301Z" fill="#1C78C0"/>
</g>
<defs>
<clipPath id="clip0">
<rect width="60" height="59.257" fill="white"/>
</clipPath>
</defs>
</svg>
