<svg width="35" height="75" viewBox="0 0 35 75" fill="none" xmlns="http://www.w3.org/2000/svg">
<g clip-path="url(#clip0)">
<path d="M27.0442 72.369L27.7633 60.5346L29.7489 57.187C29.7489 57.187 25.2296 59.0128 17.6634 59.0128C10.0972 59.0128 5.64633 57.2207 5.64633 57.2207L7.87169 60.8725L8.65893 72.369C8.65893 73.6015 12.7745 74.6005 17.8516 74.6005C22.9284 74.6005 27.0442 73.6015 27.0442 72.369V72.369ZM24.7757 17.1041L26.2851 11.2117L34.6439 2.52525L32.4408 0.672028L23.5914 9.92531L21.8388 16.9651C20.5198 16.9214 19.2001 16.8998 17.8804 16.9C8.56021 16.9 1.00468 17.9491 1.00468 19.2428C1.00468 20.5367 8.56021 21.5856 17.8804 21.5856C27.2004 21.5856 34.7558 20.5367 34.7558 19.2428C34.7558 18.2901 30.6581 17.4701 24.7757 17.1041" fill="#D34A47"/>
<path d="M23.8977 20.4035C23.8977 20.4035 23.5708 20.4759 22.6092 20.4799C21.6473 20.4838 20.9643 20.4738 20.6923 20.2291C20.6192 20.1634 20.5791 20.0329 20.5795 19.9446C20.5803 19.7764 20.7012 19.6774 20.8552 19.6154L21.0008 19.841C20.9374 19.8625 20.9013 19.8881 20.9011 19.9153C20.9006 20.043 21.8846 20.1304 22.6373 20.121C23.39 20.1118 24.2996 20.0506 24.3004 19.9247C24.3004 19.8866 24.2316 19.8508 24.1119 19.8225L24.2569 19.5985C24.4519 19.6583 24.6222 19.7738 24.6218 19.9738C24.62 20.3137 24.1819 20.3654 23.8977 20.4035" fill="white"/>
<path d="M34.6274 2.54224C34.8376 2.30249 34.5186 1.68924 33.9151 1.17271C33.3112 0.656433 32.6513 0.432126 32.4408 0.671876C32.2305 0.911626 32.5496 1.52487 33.1534 2.04115C33.757 2.55755 34.4171 2.78212 34.6274 2.54224ZM26.6421 43.4622C26.444 41.5798 30.811 38.8535 29.6903 38.7662C27.2776 38.9025 26.0768 41.5587 24.8629 44.3407C24.418 45.3603 22.8959 49.708 21.8976 49.1727C20.8995 48.6377 23.1915 45.0626 23.8339 42.9394C23.0927 43.4762 20.3743 45.5621 19.6737 43.6086C18.5474 44.5534 16.1406 45.0652 16.4121 42.5835C15.8129 43.6318 14.4681 45.0953 12.8539 44.4871C10.734 43.6887 14.0822 37.0195 14.9148 37.356C15.7475 37.6923 14.7468 39.2116 14.4847 39.8015C13.9082 41.0999 13.2424 42.7321 13.6872 43.0662C14.4493 43.6386 16.523 40.9007 16.5691 40.8405C16.957 40.3344 18.062 37.0236 18.9526 37.4038C19.8432 37.7839 16.7312 42.1553 17.8948 43.0229C18.1294 43.198 19.0896 42.9149 19.6737 42.2908C20.0516 41.887 19.9216 40.9928 21.1814 38.0258C22.4411 35.0589 23.5639 31.364 24.4278 31.6455C25.2918 31.9268 24.5797 33.8232 24.2698 34.5302C22.8153 37.8482 20.3003 43.3299 21.4864 42.9149C22.6725 42.5 23.2901 42.4757 24.4516 41.1334C25.613 39.7911 25.5595 37.5801 26.3336 37.627C27.108 37.6741 26.978 38.3831 26.7902 38.9229C27.5521 38.0618 30.4019 36.2482 31.0898 38.0444C31.9048 40.1708 27.0127 43.2425 28.2324 43.0858C29.4217 42.9331 31.3484 41.7279 32.171 40.6322L34.4353 20.5274C34.4353 20.5274 32.1568 22.3897 17.6611 22.3897C3.16536 22.3897 1.12261 20.5662 1.12261 20.5662L3.05034 38.917C4.07358 36.0448 6.50339 30.2353 10.3334 30.4303C12.0756 30.5191 14.4014 33.8323 12.4092 33.9445C11.5659 33.9919 11.4803 32.2908 10.4817 32.0409C9.76111 31.8606 8.75789 32.4392 8.10953 33.066C6.81651 34.3158 4.03555 39.2468 4.40299 41.7051C4.87115 44.8393 8.78214 40.6161 9.44389 39.3622C9.90992 38.479 10.2248 35.8621 11.244 36.1367C12.2634 36.4113 11.1551 39.1119 10.4162 41.4996C9.5862 44.1806 9.14985 47.0088 8.10953 46.6835C7.06907 46.3584 8.76385 42.8972 8.7025 42.2908C7.72459 43.1819 5.923 45.4378 3.61814 44.3212L4.81536 55.7169C4.81536 55.7169 7.99729 58.1999 17.5826 58.1999C27.1678 58.1999 30.4676 55.7557 30.4676 55.7557L31.9542 42.5567C30.7379 43.7264 26.8885 45.8035 26.6421 43.4622" fill="#D34A47"/>
</g>
<defs>
<clipPath id="clip0">
<rect width="33.93" height="74.0713" fill="white" transform="translate(0.902771 0.554871)"/>
</clipPath>
</defs>
</svg>
