<svg width="50" height="50" viewBox="0 0 50 50" fill="none" xmlns="http://www.w3.org/2000/svg">
<path d="M49.0573 22.7721L27.2255 0.942965C25.9694 -0.314322 23.9303 -0.314322 22.6726 0.942965L18.1395 5.47653L23.8896 11.2267C25.2264 10.7753 26.7586 11.0779 27.8236 12.1432C28.8942 13.2151 29.1947 14.7604 28.732 16.1016L34.2741 21.6437C35.6149 21.1817 37.1619 21.4802 38.2326 22.5527C39.7294 24.0491 39.7294 26.4739 38.2326 27.9706C36.7355 29.4679 34.3108 29.4679 32.8129 27.9706C31.6874 26.8443 31.409 25.1906 31.9791 23.8039L26.8105 18.6353L26.81 32.2364C27.1749 32.417 27.5193 32.6582 27.8234 32.9609C29.3198 34.4571 29.3198 36.8814 27.8234 38.3802C26.3266 39.8763 23.9008 39.8763 22.4055 38.3802C20.9089 36.8816 20.9089 34.4573 22.4055 32.9609C22.7754 32.5917 23.2034 32.3123 23.66 32.125V18.3974C23.2031 18.2109 22.7757 17.9335 22.4053 17.5614C21.2716 16.4286 20.9986 14.7649 21.58 13.3728L15.9115 7.70343L0.943261 22.6712C-0.31442 23.9295 -0.31442 25.9685 0.943261 27.2259L22.7737 49.055C24.0306 50.3123 26.0689 50.3123 27.3275 49.055L49.057 27.329C50.3143 26.0711 50.3143 24.0315 49.057 22.7739" fill="#F05133"/>
</svg>
