<svg width="50" height="57" viewBox="0 0 50 57" fill="none" xmlns="http://www.w3.org/2000/svg">
<path d="M45.3121 51.4578L24.9999 57L4.68729 51.4578L0 0H50L45.3121 51.4578Z" fill="#2062AF"/>
<path d="M24.9997 4.16803V52.5797L25.0457 52.5924L41.4835 48.107L45.2777 4.16803H24.9997Z" fill="#3C9CD7"/>
<path d="M24.9817 17.0346L10.4435 23.1701L10.9257 29.2447L24.9817 23.1546L39.9336 16.6767L40.5536 10.4626L24.9817 17.0346Z" fill="white"/>
<path d="M10.4434 23.17L10.9255 29.2446L24.9815 23.1546V17.0345L10.4434 23.17Z" fill="url(#paint0_linear)"/>
<path d="M40.5535 10.4628L24.9817 17.0345V23.1546L39.9336 16.6767L40.5535 10.4628Z" fill="url(#paint1_linear)"/>
<path d="M10.4658 23.17L10.9481 29.2446L32.5153 29.3143L32.0329 37.4137L24.936 39.4383L18.1138 37.6928L17.7005 32.6655H11.3614L12.1883 42.3708L25.0049 46.2109L37.752 42.4405L39.4058 23.17H10.4658Z" fill="url(#paint2_linear)"/>
<path opacity="0.05" d="M24.9817 23.17H10.4435L10.9257 29.2446L24.9817 29.2901V23.17ZM24.9817 39.4189L24.9128 39.4384L18.0916 37.6929L17.6782 32.6657H11.3393L12.1661 42.3709L24.9817 46.211V39.4189Z" fill="black"/>
<path d="M9.13419 10.4628H40.5537L39.9338 16.6768H9.89204L9.13419 10.4628Z" fill="url(#paint3_linear)"/>
<path opacity="0.05" d="M24.9818 10.4628H9.13419L9.89204 16.6768H24.9818V10.4628Z" fill="black"/>
<defs>
<linearGradient id="paint0_linear" x1="17.7125" y1="29.2447" x2="17.7125" y2="17.0347" gradientUnits="userSpaceOnUse">
<stop offset="0.387" stop-color="#D1D3D4" stop-opacity="0"/>
<stop offset="1" stop-color="#D1D3D4"/>
</linearGradient>
<linearGradient id="paint1_linear" x1="32.7675" y1="23.1547" x2="32.7675" y2="10.4629" gradientUnits="userSpaceOnUse">
<stop offset="0.387" stop-color="#D1D3D4" stop-opacity="0"/>
<stop offset="1" stop-color="#D1D3D4"/>
</linearGradient>
<linearGradient id="paint2_linear" x1="10.4658" y1="34.6906" x2="39.4057" y2="34.6906" gradientUnits="userSpaceOnUse">
<stop stop-color="#E8E7E5"/>
<stop offset="1" stop-color="white"/>
</linearGradient>
<linearGradient id="paint3_linear" x1="9.13419" y1="13.5698" x2="40.5535" y2="13.5698" gradientUnits="userSpaceOnUse">
<stop stop-color="#E8E7E5"/>
<stop offset="1" stop-color="white"/>
</linearGradient>
</defs>
</svg>
