<svg width="52" height="50" viewBox="0 0 52 50" fill="none" xmlns="http://www.w3.org/2000/svg">
<g clip-path="url(#clip0)">
<path d="M36.0306 34.4789C37.9495 34.2802 39.4053 32.626 39.3391 30.6406C39.2731 28.6555 37.6186 27.0673 35.6335 27.0673H35.5013C33.4497 27.1335 31.8617 28.8539 31.9279 30.9053C31.9941 31.898 32.391 32.7582 32.9866 33.3538C30.7367 37.7876 27.2958 41.0301 22.1344 43.7432C18.6272 45.5961 14.9878 46.2579 11.3484 45.7948C8.3706 45.3977 6.05456 44.0743 4.59856 41.8903C2.48118 38.6478 2.28272 35.1405 4.06941 31.6333C5.32676 29.1186 7.3117 27.2657 8.56905 26.3393C8.30438 25.479 7.90727 24.0232 7.70881 22.9645C-1.88623 29.9128 -0.893551 39.3096 2.01805 43.7432C4.20165 47.0521 8.63527 49.1035 13.532 49.1035C14.8554 49.1035 16.1787 48.971 17.5023 48.6403C25.9724 46.9859 32.3912 41.9565 36.0306 34.4789ZM47.677 26.2732C42.6478 20.3836 35.2366 17.1411 26.7665 17.1411H25.7078C25.1122 15.95 23.8549 15.1558 22.4653 15.1558H22.3328C20.2817 15.222 18.6936 16.9425 18.7597 18.994C18.8259 20.9792 20.4801 22.5674 22.4653 22.5674H22.5975C24.0533 22.5012 25.3107 21.5748 25.84 20.3174H27.0311C32.0603 20.3174 36.8246 21.7732 41.126 24.6188C44.4345 26.8026 46.8168 29.6482 48.1401 33.0891C49.265 35.8685 49.1988 38.5816 48.0077 40.8978C46.155 44.405 43.0449 46.3241 38.9422 46.3241C36.2953 46.3241 33.7808 45.5299 32.4572 44.9343C31.7294 45.5961 30.4059 46.6548 29.4794 47.3168C32.325 48.6401 35.2366 49.3681 38.0158 49.3681C44.3683 49.3681 49.0666 45.8608 50.8533 42.3536C52.7722 38.5154 52.6398 31.898 47.677 26.2732ZM14.0614 35.6036C14.1276 37.5889 15.7818 39.177 17.767 39.177H17.8994C19.9508 39.1109 21.5388 37.3903 21.4726 35.3389C21.4066 33.3536 19.7521 31.7655 17.767 31.7655H17.6347C17.5023 31.7655 17.3036 31.7655 17.1716 31.8315C14.4585 27.3317 13.3336 22.435 13.7307 17.1409C13.9951 13.1705 15.3187 9.72931 17.6347 6.88374C19.5537 4.43527 23.2593 3.24414 25.774 3.17813C32.7881 3.04569 35.7657 11.7807 35.9644 15.288C36.8246 15.4865 38.2804 15.9498 39.2731 16.2807C38.4789 5.56058 31.8617 0.00186157 25.5093 0.00186157C19.5537 0.00186157 14.0614 4.30324 11.8776 10.656C8.83372 19.1263 10.8189 27.2657 14.5245 33.6847C14.1938 34.1478 13.9951 34.8758 14.0614 35.6038V35.6036Z" fill="#764ABC"/>
</g>
<defs>
<clipPath id="clip0">
<rect width="52" height="49.5664" fill="white"/>
</clipPath>
</defs>
</svg>
