<svg xmlns="http://www.w3.org/2000/svg" xmlns:xlink="http://www.w3.org/1999/xlink"><defs>
<linearGradient id="paint0_linear" x1="17.7125" y1="29.2447" x2="17.7125" y2="17.0347" gradientUnits="userSpaceOnUse">
<stop offset="0.387" stop-color="#D1D3D4" stop-opacity="0"/>
<stop offset="1" stop-color="#D1D3D4"/>
</linearGradient>
<linearGradient id="paint1_linear" x1="32.7675" y1="23.1547" x2="32.7675" y2="10.4629" gradientUnits="userSpaceOnUse">
<stop offset="0.387" stop-color="#D1D3D4" stop-opacity="0"/>
<stop offset="1" stop-color="#D1D3D4"/>
</linearGradient>
<linearGradient id="paint2_linear" x1="10.4658" y1="34.6906" x2="39.4057" y2="34.6906" gradientUnits="userSpaceOnUse">
<stop stop-color="#E8E7E5"/>
<stop offset="1" stop-color="white"/>
</linearGradient>
<linearGradient id="paint3_linear" x1="9.13419" y1="13.5698" x2="40.5535" y2="13.5698" gradientUnits="userSpaceOnUse">
<stop stop-color="#E8E7E5"/>
<stop offset="1" stop-color="white"/>
</linearGradient>

<clipPath id="clip0">
<rect width="33.93" height="74.0713" fill="white" transform="translate(0.902771 0.554871)"/>
</clipPath>

<clipPath id="clip0">
<rect width="50" height="55.2734" fill="white"/>
</clipPath>

<clipPath id="clip0">
<rect width="70" height="62.888" fill="white"/>
</clipPath>

<clipPath id="clip0">
<rect width="52" height="49.5664" fill="white"/>
</clipPath>

<clipPath id="clip0">
<rect width="60" height="59.257" fill="white"/>
</clipPath>
</defs><symbol id="icon-css" viewBox="0 0 50 57">
<path d="M45.3121 51.4578L24.9999 57L4.68729 51.4578L0 0H50L45.3121 51.4578Z" fill="#2062AF"/>
<path d="M24.9997 4.16803V52.5797L25.0457 52.5924L41.4835 48.107L45.2777 4.16803H24.9997Z" fill="#3C9CD7"/>
<path d="M24.9817 17.0346L10.4435 23.1701L10.9257 29.2447L24.9817 23.1546L39.9336 16.6767L40.5536 10.4626L24.9817 17.0346Z" fill="white"/>
<path d="M10.4434 23.17L10.9255 29.2446L24.9815 23.1546V17.0345L10.4434 23.17Z" fill="url(#paint0_linear)"/>
<path d="M40.5535 10.4628L24.9817 17.0345V23.1546L39.9336 16.6767L40.5535 10.4628Z" fill="url(#paint1_linear)"/>
<path d="M10.4658 23.17L10.9481 29.2446L32.5153 29.3143L32.0329 37.4137L24.936 39.4383L18.1138 37.6928L17.7005 32.6655H11.3614L12.1883 42.3708L25.0049 46.2109L37.752 42.4405L39.4058 23.17H10.4658Z" fill="url(#paint2_linear)"/>
<path opacity="0.05" d="M24.9817 23.17H10.4435L10.9257 29.2446L24.9817 29.2901V23.17ZM24.9817 39.4189L24.9128 39.4384L18.0916 37.6929L17.6782 32.6657H11.3393L12.1661 42.3709L24.9817 46.211V39.4189Z" fill="black"/>
<path d="M9.13419 10.4628H40.5537L39.9338 16.6768H9.89204L9.13419 10.4628Z" fill="url(#paint3_linear)"/>
<path opacity="0.05" d="M24.9818 10.4628H9.13419L9.89204 16.6768H24.9818V10.4628Z" fill="black"/>

</symbol><symbol id="icon-git" viewBox="0 0 50 50">
<path d="M49.0573 22.7721L27.2255 0.942965C25.9694 -0.314322 23.9303 -0.314322 22.6726 0.942965L18.1395 5.47653L23.8896 11.2267C25.2264 10.7753 26.7586 11.0779 27.8236 12.1432C28.8942 13.2151 29.1947 14.7604 28.732 16.1016L34.2741 21.6437C35.6149 21.1817 37.1619 21.4802 38.2326 22.5527C39.7294 24.0491 39.7294 26.4739 38.2326 27.9706C36.7355 29.4679 34.3108 29.4679 32.8129 27.9706C31.6874 26.8443 31.409 25.1906 31.9791 23.8039L26.8105 18.6353L26.81 32.2364C27.1749 32.417 27.5193 32.6582 27.8234 32.9609C29.3198 34.4571 29.3198 36.8814 27.8234 38.3802C26.3266 39.8763 23.9008 39.8763 22.4055 38.3802C20.9089 36.8816 20.9089 34.4573 22.4055 32.9609C22.7754 32.5917 23.2034 32.3123 23.66 32.125V18.3974C23.2031 18.2109 22.7757 17.9335 22.4053 17.5614C21.2716 16.4286 20.9986 14.7649 21.58 13.3728L15.9115 7.70343L0.943261 22.6712C-0.31442 23.9295 -0.31442 25.9685 0.943261 27.2259L22.7737 49.055C24.0306 50.3123 26.0689 50.3123 27.3275 49.055L49.057 27.329C50.3143 26.0711 50.3143 24.0315 49.057 22.7739" fill="#F05133"/>
</symbol><symbol id="icon-gulp" viewBox="0 0 35 75">
<g clip-path="url(#clip0)">
<path d="M27.0442 72.369L27.7633 60.5346L29.7489 57.187C29.7489 57.187 25.2296 59.0128 17.6634 59.0128C10.0972 59.0128 5.64633 57.2207 5.64633 57.2207L7.87169 60.8725L8.65893 72.369C8.65893 73.6015 12.7745 74.6005 17.8516 74.6005C22.9284 74.6005 27.0442 73.6015 27.0442 72.369V72.369ZM24.7757 17.1041L26.2851 11.2117L34.6439 2.52525L32.4408 0.672028L23.5914 9.92531L21.8388 16.9651C20.5198 16.9214 19.2001 16.8998 17.8804 16.9C8.56021 16.9 1.00468 17.9491 1.00468 19.2428C1.00468 20.5367 8.56021 21.5856 17.8804 21.5856C27.2004 21.5856 34.7558 20.5367 34.7558 19.2428C34.7558 18.2901 30.6581 17.4701 24.7757 17.1041" fill="#D34A47"/>
<path d="M23.8977 20.4035C23.8977 20.4035 23.5708 20.4759 22.6092 20.4799C21.6473 20.4838 20.9643 20.4738 20.6923 20.2291C20.6192 20.1634 20.5791 20.0329 20.5795 19.9446C20.5803 19.7764 20.7012 19.6774 20.8552 19.6154L21.0008 19.841C20.9374 19.8625 20.9013 19.8881 20.9011 19.9153C20.9006 20.043 21.8846 20.1304 22.6373 20.121C23.39 20.1118 24.2996 20.0506 24.3004 19.9247C24.3004 19.8866 24.2316 19.8508 24.1119 19.8225L24.2569 19.5985C24.4519 19.6583 24.6222 19.7738 24.6218 19.9738C24.62 20.3137 24.1819 20.3654 23.8977 20.4035" fill="white"/>
<path d="M34.6274 2.54224C34.8376 2.30249 34.5186 1.68924 33.9151 1.17271C33.3112 0.656433 32.6513 0.432126 32.4408 0.671876C32.2305 0.911626 32.5496 1.52487 33.1534 2.04115C33.757 2.55755 34.4171 2.78212 34.6274 2.54224ZM26.6421 43.4622C26.444 41.5798 30.811 38.8535 29.6903 38.7662C27.2776 38.9025 26.0768 41.5587 24.8629 44.3407C24.418 45.3603 22.8959 49.708 21.8976 49.1727C20.8995 48.6377 23.1915 45.0626 23.8339 42.9394C23.0927 43.4762 20.3743 45.5621 19.6737 43.6086C18.5474 44.5534 16.1406 45.0652 16.4121 42.5835C15.8129 43.6318 14.4681 45.0953 12.8539 44.4871C10.734 43.6887 14.0822 37.0195 14.9148 37.356C15.7475 37.6923 14.7468 39.2116 14.4847 39.8015C13.9082 41.0999 13.2424 42.7321 13.6872 43.0662C14.4493 43.6386 16.523 40.9007 16.5691 40.8405C16.957 40.3344 18.062 37.0236 18.9526 37.4038C19.8432 37.7839 16.7312 42.1553 17.8948 43.0229C18.1294 43.198 19.0896 42.9149 19.6737 42.2908C20.0516 41.887 19.9216 40.9928 21.1814 38.0258C22.4411 35.0589 23.5639 31.364 24.4278 31.6455C25.2918 31.9268 24.5797 33.8232 24.2698 34.5302C22.8153 37.8482 20.3003 43.3299 21.4864 42.9149C22.6725 42.5 23.2901 42.4757 24.4516 41.1334C25.613 39.7911 25.5595 37.5801 26.3336 37.627C27.108 37.6741 26.978 38.3831 26.7902 38.9229C27.5521 38.0618 30.4019 36.2482 31.0898 38.0444C31.9048 40.1708 27.0127 43.2425 28.2324 43.0858C29.4217 42.9331 31.3484 41.7279 32.171 40.6322L34.4353 20.5274C34.4353 20.5274 32.1568 22.3897 17.6611 22.3897C3.16536 22.3897 1.12261 20.5662 1.12261 20.5662L3.05034 38.917C4.07358 36.0448 6.50339 30.2353 10.3334 30.4303C12.0756 30.5191 14.4014 33.8323 12.4092 33.9445C11.5659 33.9919 11.4803 32.2908 10.4817 32.0409C9.76111 31.8606 8.75789 32.4392 8.10953 33.066C6.81651 34.3158 4.03555 39.2468 4.40299 41.7051C4.87115 44.8393 8.78214 40.6161 9.44389 39.3622C9.90992 38.479 10.2248 35.8621 11.244 36.1367C12.2634 36.4113 11.1551 39.1119 10.4162 41.4996C9.5862 44.1806 9.14985 47.0088 8.10953 46.6835C7.06907 46.3584 8.76385 42.8972 8.7025 42.2908C7.72459 43.1819 5.923 45.4378 3.61814 44.3212L4.81536 55.7169C4.81536 55.7169 7.99729 58.1999 17.5826 58.1999C27.1678 58.1999 30.4676 55.7557 30.4676 55.7557L31.9542 42.5567C30.7379 43.7264 26.8885 45.8035 26.6421 43.4622" fill="#D34A47"/>
</g>

</symbol><symbol id="icon-html" viewBox="0 0 50 57">
<path d="M4.54796 51.3194L0 0H50L45.452 51.2917L24.9587 57" fill="#E44D26"/>
<path d="M25 52.6357V4.21198H45.4383L41.538 47.9942" fill="#F16529"/>
<path d="M9.28891 10.4883H25V16.7786H16.1522L16.731 23.2212H25V29.4976H10.9978L9.28891 10.4883ZM11.2735 32.6566H17.5579L17.9989 37.686L25 39.5703V46.1376L12.1555 42.5353" fill="#EBEBEB"/>
<path d="M40.6561 10.4883H24.9724V16.7786H40.0772L40.6561 10.4883ZM39.5122 23.2212H24.9724V29.5115H32.6902L31.9598 37.686L24.9724 39.5703V46.1099L37.7895 42.5353" fill="white"/>
</symbol><symbol id="icon-jest" viewBox="0 0 50 56">
<g clip-path="url(#clip0)">
<path d="M46.8696 27.1881C46.8696 24.3494 44.5685 22.0482 41.7298 22.0482C41.5472 22.0482 41.3671 22.058 41.1896 22.0766L48.2491 1.25528H18.2484L25.298 22.0586C25.1946 22.0523 25.0907 22.0482 24.9857 22.0482C22.147 22.0482 19.8458 24.3494 19.8458 27.1881C19.8458 29.4826 21.3495 31.4252 23.4251 32.0861C22.3288 33.985 20.9495 35.6951 19.3835 37.1725C17.254 39.1814 14.8169 40.7047 12.1812 41.6434C9.04288 40.0313 7.56085 36.4457 8.89816 33.3022C9.04913 32.9473 9.20323 32.5873 9.35069 32.2291C11.6241 31.6984 13.3183 29.6602 13.3183 27.225C13.3183 24.3863 11.0171 22.0852 8.17843 22.0852C5.33956 22.0852 3.03839 24.3863 3.03839 27.225C3.03839 28.9658 3.9046 30.5031 5.22843 31.433C3.95616 34.3297 2.08624 37.3609 1.50362 40.8742C0.805382 45.085 1.50148 49.5545 5.14308 52.0785C13.6243 57.9566 22.8306 48.4346 32.5374 46.0408C36.0552 45.1732 39.9167 45.3131 43.0161 43.518C45.3437 42.1699 46.878 39.9359 47.3136 37.4277C47.7437 34.95 47.1165 32.483 45.6743 30.4826C46.4202 29.5904 46.8696 28.442 46.8696 27.1881ZM30.1251 27.2063C30.1251 27.2002 30.1257 27.1941 30.1257 27.1881C30.1257 25.324 29.1331 23.6916 27.648 22.7906L33.2589 11.4447L38.8796 22.9109C37.4993 23.8324 36.5898 25.4039 36.5898 27.1881C36.5898 27.2256 36.5919 27.2625 36.5927 27.2998L30.1251 27.2063Z" fill="#C63D14"/>
<path d="M48.1248 27.1881C48.1248 24.066 45.8754 21.4609 42.9123 20.9045L50 0H16.4973L23.5957 20.9469C20.7357 21.5834 18.5904 24.1393 18.5904 27.1881C18.5904 29.4777 19.8004 31.4889 21.6139 32.6189C20.7416 33.9184 19.7072 35.1412 18.5219 36.2594C16.6422 38.0328 14.5479 39.3777 12.29 40.2625C10.016 38.834 9.05469 36.1402 10.0531 33.7934L10.1313 33.6098C10.1801 33.4949 10.2291 33.3797 10.2779 33.2645C12.7756 32.3936 14.5734 30.016 14.5734 27.225C14.5734 23.6986 11.7045 20.8299 8.17813 20.8299C4.65176 20.8299 1.78301 23.6986 1.78301 27.225C1.78301 29.0049 2.51446 30.6166 3.6918 31.7771C3.47833 32.2322 3.25391 32.6947 3.02325 33.1686C1.94669 35.3797 0.726569 37.8859 0.265046 40.6689C-0.651556 46.1961 0.826765 50.6145 4.42774 53.1102C6.6129 54.6246 8.83184 55.2203 11.0649 55.2201C15.2697 55.2199 19.5231 53.1076 23.6832 51.0412C26.6795 49.5531 29.7775 48.0143 32.8379 47.2596C33.9766 46.9787 35.1483 46.8098 36.3887 46.6309C38.8484 46.276 41.3922 45.9092 43.6453 44.6043C46.2568 43.0916 48.0447 40.5541 48.5502 37.6426C48.9842 35.1432 48.4617 32.64 47.1879 30.517C47.7818 29.5467 48.1248 28.4068 48.1248 27.1881ZM45.6143 27.1881C45.6143 29.3301 43.8717 31.0728 41.7295 31.0728C39.5877 31.0728 37.8449 29.3301 37.8449 27.1881C37.8449 25.0461 39.5877 23.3035 41.7295 23.3035C43.8717 23.3035 45.6143 25.0461 45.6143 27.1881ZM46.4979 2.51055L40.2391 20.9701C39.9678 21.0352 39.7033 21.1172 39.4465 21.2158L33.2637 8.60293L27.0629 21.1412C26.7949 21.0488 26.5191 20.9729 26.2363 20.9166L19.999 2.51055H46.4979ZM24.9856 23.3035C27.1275 23.3035 28.8701 25.0461 28.8701 27.1881C28.8701 29.3301 27.1275 31.0728 24.9856 31.0728C22.8438 31.0728 21.101 29.3301 21.101 27.1881C21.101 25.0461 22.8438 23.3035 24.9856 23.3035ZM8.17813 23.3404C10.3203 23.3404 12.0629 25.083 12.0629 27.225C12.0629 29.367 10.3203 31.1098 8.17813 31.1098C6.03633 31.1098 4.29356 29.367 4.29356 27.225C4.29356 25.083 6.03633 23.3404 8.17813 23.3404ZM46.0766 37.2131C45.6986 39.3904 44.3537 41.2926 42.3869 42.4316C40.5535 43.4936 38.3565 43.8105 36.0303 44.1459C34.7842 44.3256 33.4955 44.5115 32.2367 44.8221C28.9082 45.6428 25.6842 47.2441 22.5664 48.7928C16.3272 51.8918 10.9387 54.568 5.85802 51.0467C2.13634 48.4674 2.30821 43.6949 2.7418 41.0797C3.14356 38.6568 4.22989 36.4254 5.28048 34.2674C5.46231 33.8939 5.63887 33.5281 5.81212 33.1646C6.33321 33.373 6.88731 33.515 7.46485 33.5795C6.39551 37.109 8.07735 40.9465 11.6072 42.76L12.0902 43.0082L12.602 42.826C15.3926 41.8322 17.9639 40.2373 20.2447 38.0855C21.7191 36.6947 22.9861 35.1559 24.0279 33.5115C24.3404 33.5586 24.6602 33.5834 24.9856 33.5834C28.5119 33.5834 31.3809 30.7146 31.3809 27.1881C31.3809 25.2916 30.5502 23.5861 29.2346 22.4139L33.2537 14.2865L37.3137 22.5687C36.0955 23.734 35.3344 25.3732 35.3344 27.1881C35.3344 30.7146 38.2031 33.5834 41.7295 33.5834C43.0844 33.5834 44.3412 33.1588 45.3764 32.4373C46.0951 33.9086 46.3629 35.5641 46.0766 37.2131Z" fill="white"/>
</g>

</symbol><symbol id="icon-js" viewBox="0 0 50 58">
<path d="M50 0.717224H0L4.6875 51.9154L24.9972 57.7172L45.3069 51.9154L50 0.717224Z" fill="#E6A329"/>
<path d="M24.9972 4.88849V53.3786L41.4527 48.6827L45.4561 4.88849H24.9972Z" fill="#F1BF22"/>
<path d="M38.0884 11.1696H12.7872L11.0248 30.3388L11.0614 30.2197H32.5563L31.8553 38.3297L24.9972 40.3175L18.0378 38.2985L17.6211 33.39H11.3035L12.2044 43.1986L24.9972 46.8566L37.7957 43.1986L39.558 23.9471H16.7455L17.0383 17.5328H32.866L33.1025 21.2079H39.4764L38.0884 11.1696Z" fill="white"/>
<path d="M25.0029 11.1696H12.7872L11.0248 30.3388L11.0614 30.2197H25.0029V23.967H17.6352L17.928 17.5527H25.0029V11.1696ZM17.6352 33.39H11.3035L12.2044 43.1929L24.9973 46.8453V40.3232L18.0378 38.2985L17.6352 33.39Z" fill="#EBEBEB"/>
</symbol><symbol id="icon-react" viewBox="0 0 70 63">
<g clip-path="url(#clip0)">
<path d="M0.206207 31.3757C0.206207 36.6296 5.33651 41.534 13.4245 44.2986C11.8093 52.4295 13.1352 58.9833 17.563 61.5368C22.1142 64.1617 28.8946 62.3448 35.3303 56.719C41.6035 62.1175 47.9434 64.2421 52.3675 61.6812C56.9146 59.0489 58.2973 52.0508 56.6376 43.6659C65.0618 40.8808 69.7741 36.6987 69.7741 31.3757C69.7741 26.2437 64.6345 21.8041 56.6554 19.0573C58.4422 10.3259 56.9282 3.93131 52.3169 1.27224C47.8713 -1.29141 41.4575 0.943034 35.0921 6.48265C28.4697 0.602892 22.1194 -1.19215 17.513 1.4743C13.0715 4.04533 11.8041 10.7183 13.4245 18.9996C5.60939 21.7243 0.206207 26.2645 0.206207 31.3757Z" fill="white"/>
<path d="M54.9656 21.7849C54.308 21.5593 53.6448 21.3504 52.9767 21.1582C53.0875 20.708 53.1899 20.2558 53.284 19.8018C54.7895 12.4936 53.8051 6.60621 50.4436 4.66817C47.2207 2.80941 41.9496 4.74746 36.626 9.38012C36.1014 9.83765 35.5885 10.3084 35.0877 10.7918C34.7524 10.4704 34.4111 10.1551 34.064 9.84631C28.4848 4.89237 22.8924 2.80504 19.5344 4.74883C16.3145 6.61277 15.3608 12.1477 16.7162 19.0736C16.8511 19.7595 17.0033 20.4418 17.1728 21.1199C16.3815 21.3447 15.6173 21.5842 14.8862 21.8391C8.34526 24.1194 4.16785 27.6937 4.16785 31.4008C4.16785 35.2298 8.65204 39.0704 15.4653 41.3989C16.0177 41.5868 16.5748 41.7609 17.1359 41.9211C16.9536 42.6517 16.7918 43.3872 16.6506 44.1268C15.3584 50.9324 16.3676 56.3361 19.579 58.1886C22.8959 60.1012 28.4629 58.1353 33.8838 53.3968C34.3123 53.0222 34.7424 52.6249 35.173 52.2085C35.7155 52.7318 36.2724 53.24 36.8431 53.7323C42.094 58.2507 47.2798 60.0752 50.4885 58.2178C53.8024 56.2995 54.8792 50.4944 53.4809 43.4315C53.3742 42.892 53.2498 42.3411 53.1104 41.78C53.5014 41.6646 53.885 41.5454 54.2593 41.4213C61.3421 39.0747 65.9502 35.281 65.9502 31.4008C65.9502 27.6803 61.6382 24.082 54.9656 21.7849Z" fill="#53C1DE"/>
<path d="M53.429 38.9162C53.0914 39.028 52.7447 39.136 52.3914 39.2407C51.6094 36.7654 50.554 34.1331 49.2629 31.4139C50.4952 28.7589 51.5096 26.1606 52.2697 23.7011C52.9016 23.8843 53.5152 24.0771 54.1063 24.2808C59.8237 26.2486 63.3109 29.1587 63.3109 31.4008C63.3109 33.7892 59.5445 36.8898 53.4293 38.9162H53.429ZM50.8917 43.9442C51.5099 47.0673 51.5982 49.8909 51.1886 52.0983C50.8206 54.0817 50.0807 55.404 49.1658 55.9336C47.2187 57.0607 43.0547 55.5957 38.5645 51.7316C38.0497 51.2887 37.531 50.8157 37.0109 50.3153C38.7518 48.4112 40.4916 46.1975 42.1896 43.7394C45.1765 43.4744 47.9983 43.0411 50.5573 42.4496C50.683 42.9582 50.7951 43.4567 50.8917 43.9442ZM25.2306 55.739C23.3284 56.4108 21.8134 56.4299 20.8977 55.9019C18.9487 54.7781 18.1388 50.4389 19.2437 44.619C19.3751 43.9312 19.5255 43.2472 19.6949 42.5678C22.2254 43.1275 25.0267 43.5302 28.0207 43.773C29.7299 46.1784 31.52 48.3893 33.3241 50.3254C32.9406 50.6963 32.5482 51.0577 32.1469 51.4093C29.7498 53.5048 27.3478 54.9911 25.2309 55.739H25.2306ZM16.3189 38.9014C13.3063 37.8717 10.8184 36.5335 9.11302 35.0734C7.58074 33.761 6.80695 32.4581 6.80695 31.4008C6.80695 29.1513 10.1611 26.2817 15.7551 24.3313C16.4572 24.0876 17.1663 23.8645 17.8815 23.6623C18.6548 26.177 19.6689 28.8062 20.8927 31.465C19.653 34.1635 18.6244 36.8346 17.8441 39.3788C17.3318 39.2322 16.8233 39.073 16.3189 38.9014ZM19.3063 18.5667C18.1451 12.6325 18.9162 8.15628 20.8567 7.03305C22.9238 5.83654 27.4941 7.54272 32.3113 11.8199C32.6192 12.0933 32.9284 12.3796 33.2382 12.6757C31.4434 14.6031 29.6697 16.7974 27.9753 19.1888C25.0696 19.4581 22.288 19.8906 19.731 20.47C19.5734 19.8392 19.4319 19.2044 19.3063 18.5664V18.5667ZM45.9563 25.1472C45.3523 24.104 44.726 23.0738 44.0776 22.0575C46.049 22.3064 47.9376 22.6372 49.711 23.0421C49.1786 24.7486 48.515 26.533 47.7336 28.3622C47.1626 27.2788 46.5701 26.207 45.9563 25.1472ZM35.0885 14.5618C36.3058 15.8806 37.525 17.3532 38.7242 18.9509C36.2915 18.8359 33.8548 18.8354 31.4221 18.9492C32.6224 17.3664 33.852 15.8959 35.0885 14.5618ZM24.1509 25.1653C23.5448 26.2166 22.9633 27.2819 22.407 28.3603C21.6384 26.5373 20.9808 24.745 20.4438 23.0143C22.2066 22.6197 24.0864 22.2973 26.0449 22.0526C25.3893 23.0752 24.7578 24.1131 24.1509 25.1653ZM26.1012 40.9373C24.0779 40.7115 22.1696 40.4055 20.4074 40.0219C20.9529 38.2605 21.625 36.4296 22.41 34.5676C22.9687 35.6468 23.5527 36.7127 24.1616 37.7645C24.7828 38.8374 25.4296 39.8953 26.1012 40.9373ZM35.1615 48.4262C33.9105 47.0763 32.6629 45.5834 31.4442 43.9776C32.6271 44.024 33.8332 44.0475 35.0589 44.0475C36.3183 44.0475 37.5632 44.0194 38.7885 43.9647C37.5854 45.5998 36.3706 47.0949 35.1615 48.4262ZM47.7587 34.4727C48.5845 36.355 49.2806 38.176 49.8335 39.9076C48.042 40.3164 46.1081 40.6456 44.0702 40.89C44.7233 39.8548 45.3556 38.8066 45.967 37.7462C46.5884 36.6684 47.1858 35.577 47.7587 34.4727ZM43.6806 36.4277C42.7447 38.0535 41.7562 39.6484 40.7167 41.2099C38.8836 41.3409 36.9893 41.4084 35.0589 41.4084C33.1365 41.4084 31.2662 41.3486 29.4652 41.2318C28.3987 39.6739 27.3915 38.0762 26.4457 36.4422C25.5044 34.8168 24.6252 33.1563 23.8099 31.4642C24.6231 29.7716 25.4997 28.1102 26.4378 26.4835V26.484C27.3756 24.857 28.3749 23.2661 29.4335 21.7149C31.2709 21.576 33.1548 21.5033 35.0592 21.5033C36.9721 21.5033 38.8585 21.5766 40.6953 21.7166C41.7432 23.2654 42.7361 24.8507 43.6721 26.4695C44.6135 28.0926 45.5017 29.7459 46.3356 31.4267C45.5103 33.1247 44.6249 34.7928 43.6809 36.4277H43.6806ZM49.1253 6.95458C51.1941 8.14781 51.9988 12.9593 50.6989 19.2691C50.6137 19.6802 50.5211 20.0897 50.4211 20.4974C47.858 19.9059 45.0745 19.4657 42.1603 19.1923C40.4626 16.7749 38.7037 14.5769 36.9379 12.6744C37.4006 12.2283 37.8743 11.7938 38.3586 11.3712C42.9199 7.40163 47.1829 5.83435 49.1253 6.95458Z" fill="white"/>
<path d="M35.059 25.8839C38.106 25.8839 40.5759 28.354 40.5759 31.4008C40.5759 34.4479 38.106 36.918 35.059 36.918C32.0122 36.918 29.5421 34.4479 29.5421 31.4008C29.5421 28.354 32.0122 25.8839 35.059 25.8839Z" fill="#53C1DE"/>
</g>

</symbol><symbol id="icon-redux" viewBox="0 0 52 50">
<g clip-path="url(#clip0)">
<path d="M36.0306 34.4789C37.9495 34.2802 39.4053 32.626 39.3391 30.6406C39.2731 28.6555 37.6186 27.0673 35.6335 27.0673H35.5013C33.4497 27.1335 31.8617 28.8539 31.9279 30.9053C31.9941 31.898 32.391 32.7582 32.9866 33.3538C30.7367 37.7876 27.2958 41.0301 22.1344 43.7432C18.6272 45.5961 14.9878 46.2579 11.3484 45.7948C8.3706 45.3977 6.05456 44.0743 4.59856 41.8903C2.48118 38.6478 2.28272 35.1405 4.06941 31.6333C5.32676 29.1186 7.3117 27.2657 8.56905 26.3393C8.30438 25.479 7.90727 24.0232 7.70881 22.9645C-1.88623 29.9128 -0.893551 39.3096 2.01805 43.7432C4.20165 47.0521 8.63527 49.1035 13.532 49.1035C14.8554 49.1035 16.1787 48.971 17.5023 48.6403C25.9724 46.9859 32.3912 41.9565 36.0306 34.4789ZM47.677 26.2732C42.6478 20.3836 35.2366 17.1411 26.7665 17.1411H25.7078C25.1122 15.95 23.8549 15.1558 22.4653 15.1558H22.3328C20.2817 15.222 18.6936 16.9425 18.7597 18.994C18.8259 20.9792 20.4801 22.5674 22.4653 22.5674H22.5975C24.0533 22.5012 25.3107 21.5748 25.84 20.3174H27.0311C32.0603 20.3174 36.8246 21.7732 41.126 24.6188C44.4345 26.8026 46.8168 29.6482 48.1401 33.0891C49.265 35.8685 49.1988 38.5816 48.0077 40.8978C46.155 44.405 43.0449 46.3241 38.9422 46.3241C36.2953 46.3241 33.7808 45.5299 32.4572 44.9343C31.7294 45.5961 30.4059 46.6548 29.4794 47.3168C32.325 48.6401 35.2366 49.3681 38.0158 49.3681C44.3683 49.3681 49.0666 45.8608 50.8533 42.3536C52.7722 38.5154 52.6398 31.898 47.677 26.2732ZM14.0614 35.6036C14.1276 37.5889 15.7818 39.177 17.767 39.177H17.8994C19.9508 39.1109 21.5388 37.3903 21.4726 35.3389C21.4066 33.3536 19.7521 31.7655 17.767 31.7655H17.6347C17.5023 31.7655 17.3036 31.7655 17.1716 31.8315C14.4585 27.3317 13.3336 22.435 13.7307 17.1409C13.9951 13.1705 15.3187 9.72931 17.6347 6.88374C19.5537 4.43527 23.2593 3.24414 25.774 3.17813C32.7881 3.04569 35.7657 11.7807 35.9644 15.288C36.8246 15.4865 38.2804 15.9498 39.2731 16.2807C38.4789 5.56058 31.8617 0.00186157 25.5093 0.00186157C19.5537 0.00186157 14.0614 4.30324 11.8776 10.656C8.83372 19.1263 10.8189 27.2657 14.5245 33.6847C14.1938 34.1478 13.9951 34.8758 14.0614 35.6038V35.6036Z" fill="#764ABC"/>
</g>

</symbol><symbol id="icon-tasks" viewBox="0 0 61 54">
<path d="M10.5 26.5933V41.1592C10.5 42.8223 11.0173 44.4691 12.0224 46.0056C13.0275 47.5421 14.5007 48.9382 16.3578 50.1142C18.215 51.2902 20.4198 52.2231 22.8463 52.8595C25.2728 53.4959 27.8736 53.8235 30.5 53.8235C33.1264 53.8235 35.7272 53.4959 38.1537 52.8595C40.5802 52.2231 42.785 51.2902 44.6422 50.1142C46.4993 48.9382 47.9725 47.5421 48.9776 46.0056C49.9827 44.4691 50.5 42.8223 50.5 41.1592V26.5933L30.5 37.9931L20.5 32.2916V41.1592L18 37.9931L15.5 41.1592V29.444L10.5 26.5933Z" fill="#2F87ED"/>
<path d="M60.5 17.0969L30.5 0L0.500001 17.0969L30.5 34.1937L60.5 17.0969Z" fill="#2F87ED"/>
</symbol><symbol id="icon-webpack" viewBox="0 0 60 60">
<g clip-path="url(#clip0)">
<path d="M29.9999 0L56.5148 14.8143V44.4429L29.9999 59.2571L3.485 44.4429V14.8143L29.9999 0Z" fill="white"/>
<path d="M51.7801 43.4205L30.875 55.0991V46.0031L43.9001 38.9269L51.7801 43.4205ZM53.2101 42.1416V17.7178L45.5601 22.0782V37.7763L53.2101 42.1416ZM8.13499 43.4205L29.04 55.0991V46.0031L16.015 38.9269L8.13499 43.4205ZM6.70498 42.1416V17.7178L14.355 22.0782V37.7763L6.70498 42.1416ZM7.59998 16.1377L29.04 4.1579V12.9526L15.305 20.414L15.2 20.4733L7.59998 16.1377ZM52.3151 16.1377L30.875 4.1579V12.9526L44.6101 20.414L44.7151 20.4733L52.3151 16.1377Z" fill="#8ED6FB"/>
<path d="M29.0399 43.9341L16.19 36.9566V23.13L29.0399 30.4581V43.9341ZM30.8749 43.9341L43.7249 36.9566V23.13L30.8749 30.4581V43.9341ZM17.06 21.5301L29.9599 14.5229L42.8599 21.5301L29.9599 28.8878L17.06 21.5301Z" fill="#1C78C0"/>
</g>

</symbol></svg>
